REM DIRINDEX 1\2,1\3\7,1\3\8,1\4\9,1\4\10,1\4\11,1\5\12,1\5\13,1\5\14,1\6\15,1\6\16,1\6\17
REM DIRNAME "folder01","folder02","folder03","folder04","folder05","folder06","folder07","folder08","folder09","folder10","folder11","folder12","folder13","folder14","folder15","folder16","folder17"
TITLE ""
FILE "2Q_t_0236-0252.mp3" MP3
  TRACK 01 AUDIO
    TITLE "7:cjc174_2211"
    INDEX 01 00:00:00
  TRACK 02 AUDIO
    TITLE "0:"
    INDEX 01 00:01:06
  TRACK 03 AUDIO
    TITLE "8:cjc174_2212"
    INDEX 01 00:01:53
  TRACK 04 AUDIO
    TITLE "0:"
    INDEX 01 00:03:56
  TRACK 05 AUDIO
    TITLE "7:cjc174_2213"
    INDEX 01 00:04:24
  TRACK 06 AUDIO
    TITLE "0:"
    INDEX 01 00:05:17
  TRACK 07 AUDIO
    TITLE "8:cjc174_2214"
    INDEX 01 00:05:66
  TRACK 08 AUDIO
    TITLE "0:"
    INDEX 01 00:09:54
  TRACK 09 AUDIO
    TITLE "2:cjc174_2215"
    INDEX 01 00:10:22
  TRACK 10 AUDIO
    TITLE "0:"
    INDEX 01 00:11:28
  TRACK 11 AUDIO
    TITLE "7:cjc174_2216"
    INDEX 01 00:12:00
  TRACK 12 AUDIO
    TITLE "0:"
    INDEX 01 00:13:11
  TRACK 13 AUDIO
    TITLE "8:cjc174_2217"
    INDEX 01 00:13:56
  TRACK 14 AUDIO
    TITLE "0:"
    INDEX 01 00:17:05
  TRACK 15 AUDIO
    TITLE "7:cjc174_2218"
    INDEX 01 00:17:48
  TRACK 16 AUDIO
    TITLE "0:"
    INDEX 01 00:18:55
  TRACK 17 AUDIO
    TITLE "8:cjc174_2219"
    INDEX 01 00:19:27
  TRACK 18 AUDIO
    TITLE "0:"
    INDEX 01 00:23:47
  TRACK 19 AUDIO
    TITLE "7:cjc174_2220"
    INDEX 01 00:24:17
  TRACK 20 AUDIO
    TITLE "0:"
    INDEX 01 00:25:40
  TRACK 21 AUDIO
    TITLE "8:cjc174_2221"
    INDEX 01 00:26:14
  TRACK 22 AUDIO
    TITLE "0:"
    INDEX 01 00:28:34
  TRACK 23 AUDIO
    TITLE "7:cjc174_2222"
    INDEX 01 00:29:02
  TRACK 24 AUDIO
    TITLE "0:"
    INDEX 01 00:30:11
  TRACK 25 AUDIO
    TITLE "8:cjc174_2223"
    INDEX 01 00:30:56
  TRACK 26 AUDIO
    TITLE "0:"
    INDEX 01 00:32:01
  TRACK 27 AUDIO
    TITLE "7:cjc174_2224"
    INDEX 01 00:32:44
  TRACK 28 AUDIO
    TITLE "0:"
    INDEX 01 00:33:45
  TRACK 29 AUDIO
    TITLE "8:cjc174_2225"
    INDEX 01 00:34:19
  TRACK 30 AUDIO
    TITLE "0:"
    INDEX 01 00:36:45
  TRACK 31 AUDIO
    TITLE "7:cjc174_2226"
    INDEX 01 00:37:15
  TRACK 32 AUDIO
    TITLE "0:"
    INDEX 01 00:38:19
  TRACK 33 AUDIO
    TITLE "8:cjc174_2227"
    INDEX 01 00:38:66
  TRACK 34 AUDIO
    TITLE "0:"
    INDEX 01 00:42:22
  TRACK 35 AUDIO
    TITLE "7:cjc174_2228"
    INDEX 01 00:42:67
  TRACK 36 AUDIO
    TITLE "0:"
    INDEX 01 00:43:61
  TRACK 37 AUDIO
    TITLE "8:cjc174_2229"
    INDEX 01 00:44:35
  TRACK 38 AUDIO
    TITLE "0:"
    INDEX 01 00:46:57
  TRACK 39 AUDIO
    TITLE "7:cjc174_2230"
    INDEX 01 00:47:27
  TRACK 40 AUDIO
    TITLE "0:"
    INDEX 01 00:48:50
  TRACK 41 AUDIO
    TITLE "8:cjc174_2231"
    INDEX 01 00:49:22
  TRACK 42 AUDIO
    TITLE "0:"
    INDEX 01 00:50:43
  TRACK 43 AUDIO
    TITLE "7:cjc174_2232"
    INDEX 01 00:51:12
  TRACK 44 AUDIO
    TITLE "0:"
    INDEX 01 00:52:52
  TRACK 45 AUDIO
    TITLE "8:cjc174_2233"
    INDEX 01 00:53:22
  TRACK 46 AUDIO
    TITLE "0:"
    INDEX 01 00:54:24
  TRACK 47 AUDIO
    TITLE "7:cjc174_2234"
    INDEX 01 00:54:69
  TRACK 48 AUDIO
    TITLE "0:"
    INDEX 01 00:56:11
  TRACK 49 AUDIO
    TITLE "8:cjc174_2235"
    INDEX 01 00:56:60
  TRACK 50 AUDIO
    TITLE "0:"
    INDEX 01 01:02:13
  TRACK 51 AUDIO
    TITLE "7:cjc174_2236"
    INDEX 01 01:02:56
  TRACK 52 AUDIO
    TITLE "0:"
    INDEX 01 01:04:06
  TRACK 53 AUDIO
    TITLE "8:cjc174_2237"
    INDEX 01 01:04:53
  TRACK 54 AUDIO
    TITLE "0:"
    INDEX 01 01:05:53
  TRACK 55 AUDIO
    TITLE "7:cjc174_2238"
    INDEX 01 01:06:21
  TRACK 56 AUDIO
    TITLE "0:"
    INDEX 01 01:07:38
  TRACK 57 AUDIO
    TITLE "8:cjc174_2239"
    INDEX 01 01:08:08
  TRACK 58 AUDIO
    TITLE "0:"
    INDEX 01 01:09:00
  TRACK 59 AUDIO
    TITLE "7:cjc174_2240"
    INDEX 01 01:09:45
  TRACK 60 AUDIO
    TITLE "0:"
    INDEX 01 01:10:62
  TRACK 61 AUDIO
    TITLE "8:cjc174_2241"
    INDEX 01 01:11:38
  TRACK 62 AUDIO
    TITLE "0:"
    INDEX 01 01:13:70
  TRACK 63 AUDIO
    TITLE "7:cjc174_2242"
    INDEX 01 01:14:38
  TRACK 64 AUDIO
    TITLE "0:"
    INDEX 01 01:15:63
  TRACK 65 AUDIO
    TITLE "8:cjc174_2243"
    INDEX 01 01:16:37
  TRACK 66 AUDIO
    TITLE "0:"
    INDEX 01 01:18:54
  TRACK 67 AUDIO
    TITLE "7:cjc174_2244"
    INDEX 01 01:19:22
  TRACK 68 AUDIO
    TITLE "0:"
    INDEX 01 01:20:29
  TRACK 69 AUDIO
    TITLE "8:cjc174_2245"
    INDEX 01 01:21:01
  TRACK 70 AUDIO
    TITLE "0:"
    INDEX 01 01:25:22
